<svg width="153" height="55" viewBox="0 0 153 55" fill="none" xmlns="http://www.w3.org/2000/svg">
<path d="M37.6436 54.1312V54.1198L37.6729 54.0579L37.6909 54.0221L37.7511 53.9227L38.0102 53.548L38.0558 53.4861L38.1307 53.3704L38.165 53.3101L38.222 53.1602L38.248 53.0755L38.2888 52.8393L38.3067 52.7057L38.336 52.3359L38.3425 52.2332L38.3539 51.9921L38.3588 51.8667L38.3686 51.5767L38.3719 51.4235L38.38 51.0765L38.3833 50.8957L38.3898 50.4851L38.393 50.2717L38.3996 49.7927L38.4012 49.5434L38.4077 48.9895L38.4093 48.7028L38.4159 48.0658L38.424 47.015L38.4256 46.6598L38.4305 46.0097L38.4338 45.6953L38.437 45.1202L38.4387 44.8433L38.4403 44.3398V44.0971L38.4419 43.6588V43.447L38.4403 43.0691L38.4387 42.8866L38.4354 42.564L38.4338 42.4076L38.4289 42.1339L38.4256 42.002L38.4175 41.7722L38.4077 41.5507L38.3816 41.2183L38.367 41.0668L38.3279 40.8387L38.3083 40.7345L38.2546 40.5683L38.1568 40.3435L37.8424 39.7097L39.8968 39.7553L41.9512 39.8009L43.8671 42.8964L44.131 43.3216L44.6165 44.1118L44.7322 44.3007L44.9489 44.6526L45.0531 44.8221L45.2389 45.13L45.3285 45.2782L45.4832 45.534L45.5549 45.653L45.6706 45.8468L45.7227 45.9348L45.7944 46.0586L45.8465 46.1547L45.8661 46.2085L45.9003 46.2623L45.9166 46.2818L45.941 46.2623L45.9524 46.2427L45.9704 46.145L45.9785 46.0847L45.9883 45.9006L45.9932 45.7963L45.9948 45.5194V45.3678L45.9899 44.9931L45.9867 44.7928L45.9753 44.3121L45.9492 43.4666L45.941 43.201L45.9231 42.7351L45.9133 42.5135L45.8938 42.1258L45.8824 41.9417L45.8596 41.6256L45.8482 41.4741L45.8221 41.2183L45.8074 41.0961L45.7749 40.8909L45.7586 40.7931L45.7195 40.6302L45.5761 40.249L45.2926 39.7195H47.4138H47.7071L48.2382 39.7244L48.4923 39.7293L48.9127 39.7407L49.0088 39.7439L49.1733 39.7521L49.2499 39.7553L49.3688 39.7635L49.4226 39.7684L49.4927 39.7765L49.5366 39.7912V39.8009L49.5073 39.8694L49.4894 39.9085L49.4291 40.0241L49.1701 40.4836L49.0788 40.6383L48.9599 40.9365L48.9338 41.0261L48.8964 41.2639L48.8801 41.3975L48.8573 41.7592L48.8524 41.8602L48.8442 42.0932L48.841 42.2154L48.8361 42.4956L48.8345 42.6422L48.8328 42.9762L48.8312 43.1505L48.8328 43.5448V43.7501L48.8345 44.2111L48.8361 44.449L48.8394 44.9817L48.8426 45.2587L48.8475 45.8696L48.8573 46.8814L48.8589 47.1583L48.8654 47.6797L48.8671 47.9338L48.8736 48.4112L48.8801 48.8771L48.8931 49.6868L48.9013 50.0729L48.9176 50.7344L48.9273 51.0472L48.9469 51.5734L48.9583 51.821L48.9827 52.2283L48.9974 52.4173L49.0267 52.722L49.043 52.8621L49.0788 53.0771L49.1391 53.3166L49.2027 53.4975L49.302 53.8168L49.3232 53.8885L49.3525 53.9976L49.3721 54.097V54.1149L49.2825 54.1459L49.2271 54.1605L49.043 54.1834L48.942 54.1931L48.6895 54.2062L48.5575 54.211L48.2643 54.2159L47.9645 54.2176L47.3503 54.1947L47.2037 54.1866L46.9397 54.1622L46.6139 54.1149L46.4966 54.0921L46.3092 54.0074L46.218 53.952L46.0339 53.7369L45.985 53.6718L45.8791 53.5023L45.8221 53.4095L45.695 53.1781L45.6266 53.0543L45.4702 52.7497L45.1949 52.2006L45.133 52.0768L44.9831 51.7885L44.9049 51.6386L44.7273 51.3078L44.5432 50.969L44.1196 50.2163L43.9029 49.8334L43.4516 49.0612L42.8016 47.9843L41.3093 45.578L41.2588 48.2287L41.2506 48.6588L41.2441 49.4115L41.2408 49.7715L41.2474 50.3971L41.2523 50.6953L41.2718 51.2085L41.2848 51.4528L41.3223 51.8699L41.3419 52.0687L41.3973 52.4059L41.4282 52.5656L41.5032 52.8376L41.5439 52.968L41.64 53.1912L41.8111 53.4893L41.9186 53.649L42.0897 53.921L42.1255 53.9813L42.1744 54.0709L42.2053 54.1442V54.1508L42.1581 54.1605L42.1288 54.1654L42.0261 54.1736L41.9675 54.1785L41.8143 54.1866L41.7329 54.1899L41.5357 54.198L41.3288 54.2045L40.8107 54.2127L39.9245 54.2192H39.61L39.0382 54.2127L38.7661 54.2078L38.3132 54.1931L38.2106 54.1899L38.0346 54.1801L37.9515 54.1752L37.8228 54.1654L37.7658 54.1605L37.6909 54.1491L37.6599 54.1426M54.144 54.1165L54.1081 54.1019L54.0707 54.053L54.0576 54.0253L54.0658 53.9471L54.0772 53.9048L54.1342 53.7923L54.2759 53.5822L54.346 53.4877L54.4633 53.2906L54.5187 53.1863L54.6099 52.9452L54.6523 52.8148L54.7191 52.4955L54.7517 52.3228L54.7989 51.8895L54.8217 51.6565L54.8527 51.0781L54.8592 50.9217L54.8706 50.578L54.8771 50.4004L54.8852 50.0078L54.8885 49.8041L54.895 49.3593L54.8966 49.1296L54.9015 48.6278L54.9032 48.3688L54.9048 47.8067V46.8879V46.5637L54.9032 45.9625V45.6692L54.8999 45.13L54.8983 44.8661L54.8918 44.3838L54.8885 44.1492L54.8804 43.7207L54.8755 43.5122L54.8641 43.1326L54.8575 42.9485L54.8429 42.6162L54.8266 42.2936L54.7826 41.7706L54.7582 41.5279L54.6946 41.1417L54.6604 40.9609L54.5757 40.6807L54.5301 40.5504L54.4193 40.3435L54.2222 40.086L53.8784 39.7195H56.3368H56.6757L57.3144 39.7113L57.6223 39.7064L58.155 39.6885L58.2788 39.6836L58.4971 39.6722L58.5998 39.6673L58.7708 39.6543L58.8507 39.6478L58.9663 39.6348L59.0722 39.6136L59.1244 39.594L59.1781 39.6006L59.1977 39.612L59.1847 39.6869L59.17 39.7341L59.0869 39.8873L58.8816 40.2115L58.4157 40.9169L58.3684 46.7184L58.3228 52.52L58.7317 53.2873L59.139 54.0563L57.0667 54.0579L56.7816 54.0595L56.2358 54.0644L55.9719 54.0693L55.5076 54.0807L55.2909 54.0872L54.9586 54.1035L54.8869 54.1084L54.7761 54.1165L54.6686 54.1312L54.579 54.1508L54.3802 54.1556L54.2841 54.1524M67.5749 54.0286L67.3143 53.9944L66.8304 53.8852L66.5958 53.8233L66.1592 53.6587L65.9474 53.5708L65.558 53.3525L65.3707 53.2368L65.0302 52.9647L64.8656 52.823L64.574 52.4971L64.4339 52.3277L64.1895 51.9481L64.0722 51.751L63.8767 51.3176L63.6372 50.6073L63.6111 50.5128L63.5671 50.2782L63.5443 50.1527L63.5069 49.866L63.471 49.5662L63.4222 48.8445L63.401 48.4682L63.3814 47.6471L63.3749 47.23L63.3814 46.3779L63.3896 45.9544L63.4222 45.1414L63.4433 44.7471L63.502 44.0417L63.5183 43.8755L63.5557 43.5757L63.5753 43.4308L63.6177 43.1815L63.6405 43.0642L63.6893 42.8752L63.7692 42.6667L63.906 42.4158L64.2807 41.9124L64.4827 41.6631L64.9536 41.1939L65.198 40.9674L65.7226 40.5732L66.5241 40.1072L66.6496 40.0486L66.8646 39.9524L66.9672 39.9085L67.1611 39.8368L67.2589 39.8042L67.4625 39.7537L67.57 39.7309L67.8193 39.6983L67.9513 39.682L68.2771 39.6641L68.4531 39.6543L68.8864 39.6462L69.121 39.6413L69.6978 39.638H69.8509H70.193H70.7567L73.9744 39.6364V41.5523V41.7836L73.9695 42.1763L73.9662 42.362L73.9548 42.665L73.9483 42.8068L73.9271 43.0267L73.9157 43.1261L73.8847 43.2695L73.8668 43.3314L73.8228 43.4031L73.7984 43.4308L73.7398 43.4373L73.7088 43.4324L73.6339 43.3802L73.5035 43.2434L73.4775 43.2124L73.3504 43.1196L73.2771 43.0707L73.0734 42.9501L72.3028 42.5575L71.9737 42.4093L71.2438 42.2105L70.8757 42.129L70.1311 42.0688L69.9487 42.0622L69.5951 42.0753L69.4224 42.0867L69.0966 42.1356L68.9386 42.1632L68.6518 42.248L68.2771 42.4158L68.1403 42.4956L67.9073 42.6536L67.7998 42.7335L67.6205 42.9094L67.5375 43.0006L67.4039 43.2173L67.3436 43.333L67.2507 43.6132L67.2084 43.7647L67.1481 44.1346L67.1204 44.3333L67.0862 44.8172L67.0731 45.0746L67.0585 45.6953L67.0503 46.8064V47.2056L67.0585 47.8898L67.0634 48.214L67.0862 48.7631L67.0992 49.0221L67.1416 49.4538L67.1644 49.6575L67.2279 49.9931L67.2638 50.1495L67.3566 50.4085L67.4055 50.5291L67.5293 50.7279L67.5961 50.8223L67.7558 50.982L68.0409 51.1987L68.2022 51.3046L68.6013 51.4528L68.8082 51.5148L69.2351 51.5701L69.4436 51.5864L69.8183 51.5441L69.9047 51.5278L70.0529 51.474L70.2305 51.3649L70.3022 51.3013L70.4016 51.1514L70.4455 51.0651L70.4993 50.8077L70.5107 50.7327L70.527 50.547L70.5335 50.446L70.5433 50.2016L70.5466 50.0713L70.5514 49.7585L70.5531 49.1997V47.3261L69.8949 46.7005L69.2367 46.0733H72.0177H72.355L72.9121 46.0749H73.1728L73.5882 46.0798L73.7805 46.0831L74.0754 46.0928L74.209 46.0977L74.3996 46.1156L74.4827 46.127L74.5886 46.1547L74.6325 46.1694L74.6716 46.2101L74.6325 46.3877L74.6195 46.4122L74.5967 46.5115L74.5853 46.5702L74.5641 46.738L74.5527 46.8292L74.5348 47.0573L74.5267 47.1795L74.5104 47.4613L74.5022 47.608L74.4908 47.9387L74.4843 48.1081L74.4761 48.4796L74.4631 49.721V52.7399L73.7674 53.1472L73.6078 53.2401L73.22 53.4095L73.0164 53.4909L72.5537 53.6359L72.3126 53.706L71.7913 53.8249L71.5257 53.8803L70.9653 53.9683L70.3999 54.0481L69.2302 54.11L68.9418 54.1149L68.3781 54.0986L68.1012 54.0856M88.2623 54.097L86.1769 54.0465L86.5109 53.6213L86.5875 53.5252L86.6934 53.315L86.7162 53.2547L86.752 53.1081L86.7683 53.0283L86.7928 52.8262L86.8042 52.7155L86.8204 52.4401L86.827 52.2902L86.8367 51.9204L86.84 51.7233L86.8433 51.241L86.8449 50.3694V47.5395H85.0528H83.2607V50.2961V50.6383L83.2623 51.2003V51.4626L83.2672 51.8878L83.2721 52.085L83.2835 52.3961L83.2916 52.5395L83.3145 52.7627L83.3291 52.8653L83.365 53.025L83.3861 53.0999L83.4399 53.2205L83.6827 53.5545L84.1046 54.0563H81.5826H79.0607L79.3686 53.4518L79.4044 53.3818L79.4631 53.2352L79.4908 53.1586L79.5364 52.968L79.5576 52.8621L79.5918 52.5867L79.6064 52.4352L79.6292 52.0361L79.6341 51.9269L79.6439 51.6777L79.6472 51.549L79.6537 51.2541L79.6569 51.1026L79.6618 50.7588L79.6651 50.5812L79.6683 50.1821L79.67 49.9768L79.6732 49.519V49.2828L79.6749 48.7598V48.491L79.6765 47.8996V46.9286V46.5816V45.9462V45.6383L79.6749 45.0762V44.8042L79.6732 44.3121L79.6716 44.0743L79.6683 43.6458L79.6667 43.4389L79.6635 43.0674L79.6602 42.8899L79.6537 42.5722L79.6521 42.419L79.6439 42.1502L79.639 42.0199L79.6292 41.7934L79.6195 41.5767L79.5901 41.2493L79.5738 41.0994L79.5331 40.8729L79.5119 40.7703L79.4566 40.6074L79.3572 40.3842L79.2692 40.2131L79.1617 39.9134L79.1421 39.8482L79.1258 39.7472L79.1405 39.6576L79.147 39.6511L79.2105 39.638L79.2496 39.6315L79.3702 39.6185L79.437 39.612L79.6097 39.6022L79.7026 39.5957L79.9209 39.5859L80.149 39.5777L80.7094 39.5647L81.6543 39.5566H84.0655L83.6582 40.1561L83.5605 40.2995L83.4317 40.539L83.3747 40.6644L83.3145 40.9805L83.303 41.0717L83.29 41.2949L83.2835 41.4154L83.2802 41.712V41.87L83.2835 42.2594L83.2965 42.9664L83.3421 45.1772H85.1342H86.9263L86.9052 43.0593L86.9035 42.8671L86.8954 42.5168L86.8921 42.3473L86.8807 42.0427L86.8677 41.7494L86.8286 41.2786L86.8058 41.0603L86.7439 40.7165L86.6201 40.3109L86.5467 40.1365L86.4343 39.8547L86.4099 39.796L86.3773 39.7097L86.3561 39.6478V39.6445L86.405 39.6396L86.436 39.6364L86.5419 39.6315L86.6021 39.6282L86.7618 39.6217L86.8465 39.6185L87.0502 39.612L87.2652 39.6054L87.8012 39.5924L88.7184 39.5745L91.0824 39.5354L90.7745 40.0763L90.706 40.1952L90.6083 40.5015L90.5855 40.5927L90.5496 40.8241L90.5317 40.9495L90.5024 41.2705L90.4894 41.4448L90.4649 41.8814L90.4535 42.116L90.434 42.696L90.4291 42.8508L90.4193 43.1929L90.4144 43.3688L90.4046 43.755L90.3998 43.9537L90.39 44.3871L90.3753 45.0958L90.3688 45.4444L90.3574 46.1042L90.3509 46.4268L90.3444 47.0361L90.3411 47.3343L90.3379 47.8947L90.3362 48.1684L90.3379 48.6816V48.9325L90.3444 49.4001L90.346 49.6282L90.3558 50.0534L90.3672 50.4672L90.4014 51.171L90.4226 51.505L90.4763 52.0589L90.5057 52.3196L90.579 52.7366L90.6181 52.9305L90.7126 53.227L90.8787 53.5496L90.9732 53.6783L91.0824 53.8738L91.1231 53.9618L91.1199 54.0807L91.1052 54.1312L90.9895 54.1801L90.6865 54.1834L90.6637 54.1817L90.5757 54.1752L90.5268 54.1719L90.39 54.1654L90.245 54.1589L89.8344 54.1442L89.6145 54.1361L89.0997 54.1198L88.8325 54.1117M98.0406 54.1198L98.0276 54.1051L98.0292 54.0449L98.0341 54.009L98.0699 53.9129L98.2817 53.5577L98.3469 53.4698L98.4561 53.2791L98.5082 53.1765L98.5929 52.9338L98.6336 52.8034L98.6988 52.4776L98.7281 52.3016L98.7754 51.8634L98.7982 51.6272L98.8291 51.0439L98.8373 50.8891L98.8487 50.5454L98.8552 50.3662L98.8634 49.9768L98.8682 49.7748L98.8748 49.3349L98.878 49.1068L98.8829 48.6132L98.8845 48.359L98.8878 47.8051L98.8911 46.9074L98.9008 42.2838L97.8924 42.3979L97.604 42.4304L97.1234 42.5249L96.8986 42.5771L96.5238 42.7188L96.3463 42.797L96.053 42.999L95.6734 43.3819L95.5854 43.4943L95.429 43.6719L95.3948 43.7093L95.3411 43.7598L95.2938 43.7924H95.2889L95.2824 43.7517L95.2792 43.724L95.2743 43.6328L95.271 43.5285L95.2661 43.1945V43.0104L95.271 42.5477L95.2857 41.756L95.3345 39.7195H100.621H105.906L105.905 41.7967L105.903 42.015L105.901 42.3864L105.9 42.5608L105.895 42.8459L105.892 42.9795L105.883 43.188L105.879 43.2825L105.866 43.421L105.857 43.4813L105.84 43.5562L105.828 43.5855L105.804 43.6051L105.791 43.6067L105.758 43.5757L105.701 43.4813L105.629 43.3428L105.365 43.087L105.216 42.9648L104.821 42.7546L104.609 42.6569L104.116 42.5086L103.301 42.3702L102.322 42.2805V47.5607V52.8409L102.729 53.4388L102.842 53.605L103.018 53.8901L103.054 53.952L103.104 54.0465L103.137 54.1296V54.1361L103.081 54.1508L103.044 54.1573L102.923 54.1687L102.855 54.1752L102.677 54.185L102.583 54.1899L102.358 54.198L102.123 54.2045L101.556 54.2127L101.263 54.2159L100.636 54.2176L100.32 54.2159L99.7073 54.2094L99.4108 54.2045L98.8894 54.1915L98.7689 54.1866L98.5571 54.1768L98.4577 54.1719L98.2948 54.1605L98.2215 54.154L98.1188 54.141L98.0748 54.1345M0.337004 45.4623V45.4542L0.351666 45.3988L0.359812 45.3662L0.392395 45.2668L0.426608 45.1577L0.540652 44.8253L0.604189 44.6445L0.760591 44.203L1.02941 43.4666L1.72018 41.593V23.5906V5.58813L0.946317 3.89053L0.84042 3.65755L0.651436 3.22582L0.56346 3.01892L0.421721 2.6719L0.358183 2.51061L0.276724 2.28416L0.262062 2.23691L0.245769 2.17174L0.244141 2.12287L0.249028 2.11798L0.306049 2.11961L0.341891 2.12287L0.455933 2.14079L0.517843 2.15056L0.682389 2.18152L0.770365 2.19781L0.9789 2.2418L1.19721 2.28741L1.73484 2.40797L2.64718 2.62628L2.93881 2.69797L3.45037 2.82341L3.698 2.88369L4.14766 2.99122L4.5908 3.09712L5.44449 3.29588L5.66768 3.34638L6.15318 3.45554L6.40407 3.51093L6.97429 3.63637L7.27243 3.70317L7.96157 3.85306L8.14404 3.89216L8.53667 3.9785L9.17368 4.11698L9.48648 4.18378L10.0762 4.32552L10.3662 4.39883L10.9136 4.55035L11.4496 4.70349L12.3978 5.04725L12.8524 5.22646L13.6507 5.62886L14.0319 5.8374L14.6933 6.30986L15.0078 6.55424L15.5487 7.10816L15.8061 7.39653L16.2411 8.04331L16.4463 8.38055L16.7917 9.13323L17.2251 10.3942L17.2593 10.5164L17.3163 10.7771L17.344 10.9172L17.388 11.2658L17.3978 11.3636L17.4157 11.5851L17.4255 11.7025L17.4401 11.9729L17.4483 12.1146L17.4613 12.4437L17.4662 12.6148L17.4776 13.0091L17.4825 13.216L17.4907 13.6868L17.4955 13.9312L17.5021 14.4884L17.5053 14.7767L17.5102 15.4284L17.5118 15.7656L17.5151 16.5199L17.5167 16.9109L17.52 17.7793V18.2273L17.5216 19.2179V19.7294L17.5232 20.8519V22.6945V23.3234V24.4817V25.0454L17.5216 26.0767V26.5769L17.5183 27.4892V27.9324L17.5151 28.7339L17.5135 29.1217L17.5086 29.8206L17.5069 30.1594L17.5004 30.7655L17.4972 31.0571L17.4907 31.5768L17.4874 31.8277L17.4776 32.2709L17.4727 32.4827L17.4613 32.8557L17.4564 33.0349L17.4418 33.3494L17.4353 33.4976L17.4206 33.7583L17.4125 33.8837L17.3929 34.0988L17.375 34.3057L17.3277 34.6234L17.2446 35.0177L17.1827 35.2555L17.0557 35.6889L16.9905 35.9007L16.8504 36.2917L16.707 36.6729L16.3551 37.3474L16.1645 37.6781L15.6839 38.3151L15.5536 38.4748L15.2603 38.8039L14.765 39.3187L14.5581 39.524L14.1378 39.9019L13.926 40.086L13.4861 40.4249L13.2629 40.5895L12.7937 40.8957L12.5542 41.044L12.0476 41.3193L11.7885 41.4546L11.2313 41.7071L10.9462 41.8309L10.332 42.0639L10.0176 42.1779L9.33497 42.3962L8.2255 42.7155L7.9355 42.7937L7.42394 42.9338L7.17793 43.0023L6.7348 43.131L6.30306 43.2597L5.5178 43.5301L5.31904 43.6034L4.9036 43.7631L4.69018 43.8478L4.22586 44.0384L3.98474 44.1394L3.44385 44.374L2.51033 44.7813L2.2855 44.8824L1.89939 45.0502L1.71529 45.1284L1.409 45.2571L1.26401 45.3173L1.02941 45.4102L0.918621 45.4509L0.745927 45.5096L0.666098 45.534L0.547168 45.5601L0.493405 45.5699L0.421721 45.5666L0.358183 45.5568M9.27143 37.7514L9.55654 37.6537L10.0534 37.4207L10.2913 37.2969L10.7019 37.0085L10.8957 36.857L11.2216 36.51L11.6191 35.9219L11.984 35.2392V23.1018V22.4062V21.1322V20.5131L11.9824 19.384V18.8366L11.9808 17.8428L11.9791 17.3639L11.9759 16.4971L11.9742 16.0784L11.971 15.3306L11.9694 14.9706L11.9628 14.3303L11.9596 14.0224L11.9531 13.4815L11.9498 13.2208L11.94 12.7696L11.9351 12.5545L11.9254 12.1831L11.9189 12.0071L11.9058 11.7057L11.8993 11.564L11.883 11.3245L11.8749 11.2121L11.8569 11.0263L11.8374 10.852L11.7901 10.619L11.7054 10.373L11.6354 10.2264L11.4773 9.96411L11.3943 9.83867L11.2053 9.61384L11.1059 9.50631L10.8794 9.3157L10.7621 9.22609L10.4933 9.06806L10.3548 8.99312L10.0404 8.86605L9.87586 8.80577L9.51092 8.70639L9.32031 8.65914L8.89835 8.58257L8.19617 8.49296L7.17793 8.39195V23.3299V38.2679L7.78888 38.1603L7.87359 38.1441L8.09516 38.0936L8.21246 38.0659L8.47639 37.9942L8.74521 37.9209M142.874 43.6328L142.835 43.6116L142.708 43.5546L142.638 43.5236L142.455 43.4519L142.359 43.4145L142.133 43.3297L142.014 43.2858L141.748 43.1913L141.475 43.0951L140.851 42.8833L139.86 42.5657L139.697 42.5135L139.296 42.3946L139.086 42.3327L138.602 42.1942L138.353 42.1225L137.801 41.9694L137.517 41.8912L136.913 41.725L136.297 41.5572L134.968 41.202L134.295 41.0245L132.943 40.6725L132.273 40.4998L131.014 40.1822L130.711 40.1056L130.142 39.9639L129.865 39.8971L129.36 39.7749L129.117 39.7162L128.69 39.6168L128.49 39.5696L128.156 39.4963L128.003 39.4637L127.78 39.4197L127.581 39.3936H127.469L127.335 39.3627L127.283 39.3399L127.275 39.2486L127.288 39.1933L127.41 39.0222L127.449 38.9733L127.553 38.856L127.747 38.6507L127.843 38.5514L127.995 38.3575L128.063 38.2581L128.167 38.0447L128.215 37.9323L128.286 37.6683L128.371 37.178L128.374 37.1437L128.384 36.9971L128.387 36.9124L128.396 36.6664L128.399 36.5312L128.405 36.1939L128.409 36.0131L128.413 35.5879L128.417 35.3663L128.422 34.8613L128.425 34.6006L128.43 34.0239L128.431 33.7273L128.435 33.0855L128.436 32.7564L128.44 32.0558L128.441 31.699L128.444 30.9447V30.5635L128.446 29.7636L128.448 28.9555L128.449 27.2302V26.3553V24.5371L128.448 23.6215L128.444 21.7659L128.443 20.8373L128.436 18.9963L128.433 18.0823L128.426 16.3114L128.422 15.4398L128.412 13.7911L128.41 13.3903L128.404 12.6197L128.402 12.2401L128.396 11.52L128.392 11.1664L128.386 10.5017L128.382 10.1775L128.376 9.57637L128.373 9.28312L128.366 8.75201L128.361 8.49622L128.355 8.04168L128.35 7.825L128.343 7.45355L128.338 7.27923L128.33 6.99901L128.327 6.8703L128.317 6.68783L128.304 6.5298L128.291 6.45812L128.237 6.28868L128.205 6.20071L128.12 6.01824L127.807 5.52297L127.402 5.04073L129.973 4.98045L130.152 4.97556L130.548 4.95927L130.751 4.94949L131.188 4.92343L131.634 4.8941L132.626 4.80939L133.135 4.76214L134.212 4.64647L134.756 4.58619L135.869 4.44608L136.426 4.37439L137.524 4.21799L138.068 4.13816L139.103 3.97036L139.609 3.88727L140.531 3.71458L140.751 3.67222L141.165 3.58587L141.732 3.45879L141.965 3.4034L142.395 3.30891L142.602 3.2633L142.949 3.19487L143.109 3.16554L143.335 3.13133L143.382 3.12481L143.448 3.11993L143.495 3.12644L143.505 3.13622L143.506 3.20301V3.24211L143.488 3.35942L143.374 3.8221L143.36 3.86609L143.333 4.02412L143.319 4.1121L143.293 4.35322L143.278 4.48355L143.252 4.79635L143.239 4.9609L143.213 5.33561L143.202 5.52949L143.177 5.95633L143.166 6.17464L143.146 6.64385L143.097 8.15409L143.084 8.66403L143.055 9.59266L143.047 9.81423L143.03 10.2215L143.022 10.4187L143.006 10.7706L142.998 10.9384L142.98 11.2235L142.972 11.3571L142.956 11.5656L142.947 11.6601L142.931 11.7823L142.908 11.8572L142.895 11.8556L142.83 11.8018L142.794 11.7676L142.693 11.6585L142.318 11.186L142.164 10.9758L141.794 10.5653L141.6 10.3649L141.18 9.9967L140.966 9.82237L140.53 9.52424L139.893 9.18863L139.56 9.05014L138.866 8.88723L138.689 8.85627L138.319 8.82206L138.132 8.81065L137.736 8.81554L137.535 8.82206L137.108 8.86442L136.892 8.89048L136.429 8.97194L136.193 9.01593L135.688 9.13649L134.875 9.35969L134.091 9.59266V14.2179V14.4851V14.9722V15.2101L134.093 15.6418V15.8503L134.094 16.2299L134.096 16.4124L134.099 16.7431L134.101 16.9012L134.104 17.1846L134.106 17.3215L134.112 17.5626L134.117 17.794L134.135 18.1426L134.145 18.3023L134.171 18.5287L134.184 18.6281L134.221 18.7584L134.241 18.8155L134.288 18.879L134.376 18.9279L134.472 18.9572L134.72 19.0093L134.85 19.0354L135.15 19.0843L135.46 19.1283L136.147 19.1934L136.488 19.2211L137.115 19.2407L137.26 19.2423L137.509 19.2325L137.802 19.2016L137.899 19.1837L138.14 19.1103L138.263 19.0696L138.537 18.9588L139.321 18.5613L139.433 18.4912L139.645 18.3625L139.746 18.3023L139.92 18.2013L140.002 18.1556L140.119 18.0921L140.212 18.0514H140.217L140.225 18.1328L140.23 18.1866L140.238 18.3674L140.243 18.4701L140.251 18.7389L140.254 18.8839L140.261 19.2293L140.264 19.4117L140.271 19.8239L140.272 20.0373L140.277 20.5049L140.282 22.0624V22.3052V22.7467V22.9601L140.28 23.3478V23.5352L140.279 23.8708V24.0337L140.276 24.3221L140.274 24.599L140.264 25.0226L140.258 25.2165L140.241 25.4918L140.232 25.614L140.204 25.7704L140.189 25.8356L140.15 25.8959L140.129 25.9171L140.077 25.9089L139.979 25.8503L139.938 25.8193L139.8 25.7167L139.723 25.658L139.533 25.5146L138.879 25.021L138.767 24.9363L138.505 24.7652L138.368 24.6821L138.065 24.5176L137.752 24.3547L137.053 24.063L136.696 23.9262L135.971 23.7079L134.946 23.501L134.091 23.3967V29.5746V35.754L134.919 35.9447L135.329 36.0392L136.093 36.163L136.466 36.2151L137.165 36.2493L137.506 36.2558L138.145 36.1988L138.459 36.1581L139.049 36.0066L139.337 35.9186L139.886 35.6693L140.157 35.5325L140.675 35.1822L140.929 34.9949L141.424 34.5419L142.149 33.7453L142.261 33.6084L142.477 33.3543L142.579 33.2337L142.76 33.0317L142.845 32.9405L142.972 32.8117L143.078 32.727H143.086L143.101 32.8215L143.109 32.8851L143.125 33.0985L143.133 33.219L143.149 33.5367L143.158 33.7078L143.174 34.1184L143.182 34.3334L143.197 34.8222L143.205 35.0747L143.218 35.6302L143.226 35.9153L143.237 36.523L143.254 37.4794L143.26 37.9632L143.275 38.8022L143.283 39.203L143.299 39.8905L143.307 40.2164L143.327 40.7703L143.338 41.0326L143.361 41.4725L143.374 41.6794L143.404 42.0231L143.418 42.1844L143.454 42.4532L143.474 42.5787L143.518 42.7889L143.593 43.0593L143.667 43.2841L143.783 43.6458L143.809 43.724L143.842 43.8348L143.865 43.9146L143.866 43.9456L143.783 43.9619H143.731L143.563 43.9211L143.47 43.8951L143.246 43.8071L143.128 43.7582M19.6021 38.4569L19.6607 38.395L19.7976 38.219L19.8693 38.1245L20.0159 37.9013L20.4069 37.1942L20.7816 36.3797V23.5906V10.8015L20.2489 9.67738L20.1755 9.52261L20.0485 9.23424L19.9882 9.09739L19.8953 8.86116L19.8546 8.75201L19.8057 8.5956L19.7927 8.47667L19.7976 8.47179L19.9344 8.44409L20.0208 8.4278L20.3091 8.37892L20.4688 8.35285L20.8908 8.28606L21.1172 8.25022L21.6565 8.16713L21.9383 8.12477L22.577 8.02865L22.9077 7.97977L23.631 7.87388L24.0009 7.82011L24.7894 7.70607L26.0276 7.53012L26.4511 7.46984L27.2755 7.35254L27.6828 7.29552L28.4599 7.1831L28.8412 7.12934L29.5547 7.0267L29.9017 6.97783L30.5322 6.88659L30.8353 6.84261L31.3648 6.76603L31.614 6.72856L32.0246 6.66828L32.2119 6.64058L32.484 6.59985L32.7153 6.56401L33.2448 6.46952V10.2232V10.7396L33.2367 11.6813L33.2334 11.9061L33.2269 12.3199L33.222 12.5187L33.2122 12.8755L33.2074 13.0449L33.1976 13.3349L33.1911 13.4701L33.178 13.6819L33.1715 13.778L33.1585 13.9018L33.1357 13.9784H33.121L33.0151 13.9018L32.9516 13.853L32.7642 13.6949L32.6648 13.607L32.4221 13.3887L32.0246 13.0139L31.8112 12.8103L31.4658 12.5073L31.298 12.3688L30.9868 12.1603L30.8288 12.0658L30.4817 11.911L29.8382 11.691L29.5482 11.6031L29.0204 11.489L28.7581 11.4434L28.2221 11.4141L27.9451 11.4092L27.313 11.463L27.1452 11.4809L26.7737 11.533L26.1579 11.6324L25.6691 11.7187V15.9432V20.1693H26.5799H26.8747L27.4449 20.1074L27.7284 20.065L28.2889 19.9152L28.5691 19.8288L29.1311 19.5877L29.993 19.1201L30.1217 19.0403L30.3644 18.8953L30.4817 18.8252L30.6854 18.7096L30.7782 18.6574L30.9167 18.5857L31.0291 18.5401H31.0357L31.0487 18.6037L31.0552 18.6444L31.0666 18.7845L31.0731 18.8627L31.0845 19.0712L31.0894 19.182L31.0976 19.4492L31.1025 19.5893L31.1106 19.9086L31.1139 20.0732L31.1188 20.4332L31.1269 21.6356V22.0608L31.1171 22.8379L31.1139 23.022L31.1041 23.3625L31.0992 23.5287L31.0878 23.8219L31.0813 23.962L31.0682 24.1999L31.0617 24.3123L31.0454 24.4866L31.0373 24.5648L31.021 24.6675L30.9949 24.731H30.977L30.8858 24.7033L30.8336 24.6854L30.6886 24.6267L30.1396 24.3775L29.9995 24.3074L29.7291 24.2064L29.5906 24.1592L29.2941 24.0973L29.1393 24.0696L28.776 24.0386L28.1129 24.0223L27.7545 24.0207L27.0246 24.0533L26.8552 24.063L26.5636 24.0891L26.2394 24.1315L25.6691 24.2423L25.7148 29.0483L25.718 29.3302L25.7229 29.845L25.7245 30.0959L25.7294 30.5504L25.7327 30.7704L25.7376 31.1679L25.7408 31.3601L25.7473 31.7039L25.7506 31.8685L25.7571 32.1633L25.7604 32.3034L25.7685 32.5527L25.7767 32.7906L25.7962 33.1441L25.8076 33.3038L25.8369 33.5237L25.8516 33.6198L25.8907 33.7387L25.9119 33.7876L25.9624 33.8332L26.0553 33.8544H26.1237L26.3338 33.8267L26.4495 33.8088L26.7314 33.7502L27.0279 33.685L27.7317 33.4944L28.0868 33.3934L28.7613 33.1702L28.9194 33.1164L29.1931 33.0105L29.5222 32.8639L29.6346 32.8069L29.8952 32.6391L30.0305 32.5495L30.3221 32.3263L30.6186 32.0917L31.2409 31.5182L31.5472 31.2233L32.0995 30.6172L32.2282 30.469L32.4498 30.1855L32.7153 29.7978L33.1634 29.0483L33.2074 32.8606L33.2139 33.3852L33.2188 34.3448L33.2204 34.5745V34.9981V35.2034V35.57L33.2188 35.7459L33.2155 36.0457L33.2139 36.1874L33.2106 36.409L33.2074 36.51L33.2008 36.6436L33.1894 36.7332L33.1797 36.743L33.1389 36.7625L33.1096 36.7723L32.9874 36.8016L32.9125 36.8179L32.66 36.8651L32.585 36.8798L32.4042 36.9108L32.3064 36.9271L32.0751 36.9678L31.9513 36.9873L31.6613 37.0362L31.5098 37.0607L31.1562 37.1193L30.9705 37.1486L30.5469 37.2171L30.3253 37.2529L29.8252 37.3344L29.5645 37.3767L28.9796 37.4696L28.6766 37.5185L28.0021 37.6276L27.6535 37.683L26.8829 37.8068L25.6105 38.0105L25.226 38.0707L24.4782 38.1897L24.1084 38.2483L23.4046 38.3575L23.0592 38.4112L22.4157 38.509L22.1012 38.5562L21.5343 38.6426L21.2622 38.6817L20.7865 38.7517L20.5633 38.7843L20.1983 38.8348L20.0305 38.8576L19.7927 38.887L19.5939 38.9049H19.1736L19.6021 38.4569ZM116.089 37.6178L113.319 37.1877L113.122 36.3764L113.109 36.3161L113.063 36.106L113.039 35.987L112.974 35.6612L112.939 35.4852L112.856 35.0519L112.812 34.8222L112.713 34.2862L112.661 34.0059L112.544 33.3722L112.483 33.0447L112.35 32.3214L112.283 31.9499L112.136 31.1418L112.061 30.7297L111.902 29.8434L111.82 29.3921L111.648 28.4341L111.561 27.9486L111.377 26.9255L111.286 26.4058L111.092 25.324L110.996 24.775L110.794 23.6395L110.693 23.0644L110.484 21.8816L110.378 21.2837L110.163 20.0585L109.497 16.2593L109.416 15.7901L109.264 14.925L109.191 14.5063L109.054 13.7373L108.989 13.3642L108.867 12.6832L108.806 12.3541L108.697 11.7562L108.643 11.4662L108.544 10.9449L108.497 10.6924L108.407 10.2394L108.363 10.0228L108.282 9.63339L108.243 9.44603L108.168 9.11368L108.132 8.95239L108.062 8.67055L108.028 8.53532L107.961 8.29746L107.896 8.06938L107.77 7.7191L107.708 7.55618L107.578 7.29877L107.364 6.96153L107.024 6.48418H107.593H107.636L107.786 6.49233L107.871 6.49722L108.096 6.51188L108.215 6.52166L108.5 6.54609L108.65 6.5575L108.985 6.58845L109.331 6.6194L110.123 6.69761L110.528 6.7367L111.371 6.82305L111.789 6.86704L112.589 6.95502L112.781 6.97619L113.143 7.01692L113.319 7.03648L113.638 7.07395L113.793 7.0935L114.059 7.12608L114.183 7.14237L114.383 7.17007L114.474 7.1831L114.598 7.20265L114.683 7.22546L114.692 7.23361L114.673 7.28737L114.66 7.31995L114.603 7.41445L114.321 7.78753L114.204 7.92601L114.015 8.1655L113.928 8.28606L113.803 8.55813L113.775 8.63307L113.733 8.80414L113.715 8.89537L113.689 9.10879L113.679 9.22121L113.673 9.48676L113.671 9.62688L113.682 9.95597L113.691 10.1303L113.72 10.5376L113.738 10.751L113.787 11.2447L113.814 11.5037L113.883 12.0983L113.92 12.4079L114.01 13.1133L114.059 13.4815L114.17 14.3108L114.227 14.7409L114.36 15.7053L114.429 16.2055L114.583 17.3166L114.841 19.1592L114.932 19.8174L115.108 21.0882L115.194 21.7138L115.357 22.9014L115.437 23.4831L115.584 24.5599L115.655 25.0813L115.781 26.0213L115.812 26.2461L115.867 26.6648L115.895 26.8701L115.944 27.2448L115.968 27.4273L116.01 27.7564L116.032 27.9144L116.068 28.1914L116.084 28.325L116.111 28.5482L116.125 28.6541L116.146 28.8203L116.154 28.8968L116.165 29.0027L116.172 29.0891V29.1901L116.209 29.3481L116.3 29.4556H116.31L116.344 29.3416L116.364 29.2667L116.419 29.0158L116.449 28.874L116.522 28.4993L116.56 28.2989L116.647 27.8167L116.693 27.5642L116.792 26.9907L116.843 26.6925L116.951 26.0425L117.006 25.7085L117.122 24.9966L117.298 23.8757L117.416 23.1083L117.672 21.4775L117.799 20.6613L118.049 19.0729L118.11 18.6884L118.225 17.9569L118.282 17.5985L118.386 16.9419L118.436 16.6258L118.526 16.0654L118.638 15.3632L118.704 14.9592L118.831 14.1218L118.891 13.7047L119.002 12.908L119.028 12.7158L119.075 12.3541L119.096 12.1798L119.135 11.8605L119.153 11.7073L119.181 11.4434L119.21 11.1208L119.223 10.9449L119.238 10.6353L119.244 10.4871L119.24 10.2215L119.23 9.96737L119.134 9.53401L119.072 9.32059L118.849 8.89374L118.783 8.78296L118.622 8.54347L118.334 8.14269L118.223 7.99443L118.07 7.74028L118.04 7.68489L118.006 7.60017L118.005 7.52849L118.009 7.5236L118.096 7.52197H118.153L118.334 7.52849L118.433 7.53338L118.694 7.54804L118.832 7.55618L119.161 7.57899L119.332 7.5904L119.714 7.61809L119.911 7.63275L120.334 7.66534L120.768 7.69793L121.703 7.77612L122.175 7.81523L123.114 7.89669L123.573 7.93742L124.414 8.01724L124.613 8.03679L124.974 8.07264L125.149 8.09055L125.45 8.12314L125.593 8.13943L125.823 8.16713L126.072 8.20297L126.605 8.29258L125.828 8.90841L125.577 9.10554L125.157 9.57148L124.688 10.3258L124.645 10.4187L124.549 10.7119L124.499 10.8765L124.383 11.3229L124.352 11.445L124.288 11.722L124.254 11.8654L124.184 12.1863L124.148 12.3525L124.072 12.7191L124.033 12.9097L123.948 13.3251L123.905 13.5385L123.814 14.0061L123.769 14.2456L123.669 14.7653L123.62 15.0325L123.513 15.606L123.459 15.9008L123.343 16.533L123.286 16.8556L123.163 17.5463L123.099 17.8982L122.965 18.6509L122.899 19.0354L122.755 19.85L122.53 21.1468L122.493 21.3651L122.408 21.8441L122.366 22.0885L122.273 22.6131L122.177 23.1474L121.965 24.3302L121.856 24.9363L121.621 26.2168L121.502 26.8652L121.258 28.193L121.136 28.8577L120.89 30.1774L120.768 30.8307L120.531 32.0868L120.414 32.7026L120.197 33.8414L120.144 34.1167L120.044 34.6364L119.903 35.3614L119.85 35.6335L119.756 36.1027L119.71 36.3243L119.629 36.7022L119.59 36.8814L119.52 37.1763L119.486 37.3148L119.425 37.5364L119.394 37.6374L119.341 37.7922L119.313 37.8622L119.262 37.9583L119.238 38.0007L119.187 38.0463L119.112 38.0691L119.096 38.0675L119.005 38.0561L118.951 38.0496L118.796 38.0284L118.71 38.0153L118.497 37.9844L118.383 37.9681L118.12 37.929L117.845 37.8883L117.183 37.7873L116.84 37.7351M38.6211 36.1825V36.1385L38.7221 35.9789L38.9649 35.7117L39.0121 35.6693L39.1245 35.5406L39.1832 35.4706L39.3086 35.3011L39.6573 34.7505L39.6996 34.669L39.7713 34.5094L39.8039 34.4214L39.8577 34.1754L39.8707 34.1037L39.8935 33.9277L39.9033 33.8332L39.9228 33.6019L39.931 33.4781L39.9473 33.1799L39.9538 33.0219L39.9668 32.6439L39.9733 32.4452L39.9848 31.976L39.9896 31.73L39.9994 31.1565L40.0027 30.8567L40.0108 30.1692L40.0141 29.8092L40.0206 28.9946L40.0239 28.5694L40.0287 27.6147L40.032 27.1178L40.0369 26.0115L40.0401 25.4381L40.045 24.1657L40.0467 23.8382L40.0499 23.1474L40.0532 22.0624L40.1021 10.0244L39.2516 10.1368L39.0187 10.1678L38.5674 10.2623L38.4631 10.2867L38.292 10.3356L38.1128 10.404L38.0786 10.4219L37.9401 10.5506L37.8603 10.6272L37.6485 10.8504L37.5361 10.9726L37.2722 11.2658L37.1369 11.419L36.8469 11.7562L36.5537 12.0983L35.9819 12.7989L35.8483 12.9667L35.612 13.2714L35.3302 13.6575L35.2976 13.7063L35.2422 13.7699L35.2178 13.7959L35.1754 13.7976L35.1559 13.7878L35.1265 13.7031L35.1135 13.6477L35.0923 13.4538L35.0825 13.3398L35.0695 13.0139L35.0646 12.8315L35.0565 12.3476L35.0548 12.2173L35.0516 11.9208V11.766L35.05 11.4222L35.0483 11.2447L35.0467 10.852L35.0451 10.202L35.0369 6.34408L35.8922 6.25121L35.9525 6.24469L36.1203 6.23003L36.2116 6.22026L36.4413 6.20071L36.5635 6.19093L36.8502 6.16812L37.0001 6.15672L37.339 6.13065L37.5133 6.11599L37.8994 6.08829L38.0982 6.072L38.5266 6.04105L38.9649 6.01009L39.9505 5.94004L40.4588 5.9042L41.5553 5.82926L42.1125 5.79178L43.2822 5.71358L46.8876 5.48224L47.3193 5.45454L48.1127 5.41381L48.3033 5.40404L48.6536 5.38937L48.8247 5.38286L49.131 5.37308L49.2776 5.36819L49.5285 5.36331L49.6474 5.36168H49.8348L49.9211 5.36331L50.0368 5.36982L50.1215 5.38449L50.1378 5.40078L50.1639 5.44965L50.1769 5.47898L50.1965 5.57184L50.2062 5.62561L50.2193 5.79015L50.2258 5.88302L50.2339 6.14369L50.2372 6.28868L50.2404 6.67317V6.88334V7.41608L50.2388 7.56107L50.2372 7.88039L50.2356 8.04657L50.2323 8.41313L50.2307 8.60212L50.2274 9.01756L50.2209 9.70182L50.216 10.1547L50.1981 10.9824L50.1932 11.1795L50.1818 11.5412L50.1753 11.7171L50.1622 12.0299L50.1557 12.1798L50.1394 12.4323L50.1329 12.5513L50.1166 12.737L50.1085 12.8201L50.0906 12.9276L50.0661 12.9944L50.0498 12.9928L49.9733 12.9211L49.9309 12.8738L49.812 12.7256L49.7501 12.6425L49.6051 12.4372L49.3737 12.0869L49.2955 11.9631L49.0902 11.6796L48.9811 11.5346L48.7383 11.2381L48.6145 11.0915L48.3636 10.8145L48.0117 10.4643L47.9156 10.3747L47.7527 10.2297L47.6745 10.1612L47.5409 10.0537L47.4106 9.95271L47.176 9.83867L47.0538 9.79142L46.7524 9.75558L46.666 9.74906L46.464 9.74418L46.0974 9.74255H44.9749L44.9766 21.1061V21.9272L44.9798 23.4994L44.9815 24.2716L44.988 25.7264L44.9912 26.4368L45.0026 27.7483L45.0059 28.0659L45.0108 28.6687L45.014 28.9653L45.0206 29.5257L45.0254 29.7994L45.032 30.311L45.0368 30.5602L45.045 31.0213L45.0482 31.2445L45.058 31.6518L45.0629 31.8489L45.0711 32.1976L45.0759 32.3654L45.0857 32.6537L45.0922 32.7906L45.102 33.0154L45.1069 33.1197L45.1183 33.2777L45.1346 33.4357L45.1656 33.6215L45.2356 33.9245L45.2747 34.0678L45.3708 34.3106L45.423 34.4263L45.5566 34.6348L45.8156 34.9395L45.959 35.0877L46.1642 35.3386L46.205 35.394L46.2538 35.4755L46.2669 35.5423L46.262 35.5471L46.1936 35.5602L46.1496 35.5683L46.0078 35.5879L45.9296 35.5993L45.7244 35.6237L45.6136 35.6367L45.3529 35.6661L45.2177 35.6807L44.9098 35.7133L44.7501 35.7296L44.4031 35.7655L43.2561 35.8746L42.8505 35.9105L42.0473 35.987L41.6514 36.0245L40.9297 36.0929L40.7586 36.1108L40.4442 36.1418L40.2927 36.1565L40.0287 36.1825L39.9033 36.1956L39.698 36.2184L39.4683 36.2428L39.3396 36.2591L39.118 36.2738L39.0154 36.2786L38.8508 36.2721L38.7775 36.2672L38.6814 36.2428L38.6423 36.2281M102.078 36.0245L101.719 35.9935L101.024 35.93L100.685 35.8974L100.079 35.8388L99.9354 35.8241L99.6796 35.798L99.5574 35.785L99.3472 35.7622L99.2495 35.7524L99.0947 35.7329L98.9334 35.7117L98.3942 35.6286L98.8845 35.0698L98.953 34.9932L99.0898 34.801L99.1566 34.7L99.2837 34.4817L99.344 34.3725L99.445 34.1542L99.5525 33.8561L99.559 33.8284L99.5737 33.7273L99.5802 33.6687L99.5932 33.5074L99.5997 33.4194L99.6111 33.1979L99.6177 33.0789L99.6274 32.7955L99.6323 32.6472L99.6421 32.3002L99.647 32.1193L99.6551 31.7088L99.6584 31.497L99.6649 31.0213L99.6682 30.7769L99.6747 30.2376L99.6763 29.9591L99.6812 29.353L99.6828 29.0418L99.6861 28.369L99.6877 28.0252L99.6894 27.2839L99.691 26.906V26.0963L99.6926 25.6825L99.691 24.8043V24.3563L99.6894 23.4065V22.9226L99.6861 21.9028L99.6812 20.2915L99.634 7.38023L99.2658 6.58194L99.2153 6.47115L99.1257 6.26751L99.0833 6.16975L99.0181 6.0052L98.9888 5.92863L98.9513 5.81948L98.9399 5.74128L98.9432 5.73802L99.0214 5.73639H99.0703L99.2299 5.74291L99.3195 5.74617L99.5509 5.7592L99.6731 5.76571L99.9631 5.78364L100.263 5.80319L100.991 5.85369L101.367 5.88139L102.172 5.94167L102.575 5.97262L103.362 6.03616L103.744 6.06711L104.417 6.12576L104.574 6.14043L104.849 6.16649L104.979 6.1779L105.193 6.20071L105.292 6.21048L105.432 6.2284L105.548 6.24795L105.587 6.26099L105.621 6.32127L105.631 6.35874L105.608 6.47767L105.589 6.54446L105.504 6.73019L105.304 7.0935L104.847 7.86899L104.797 20.4951L104.794 21.0588L104.79 22.126L104.789 22.6489L104.787 23.6378L104.785 24.1217L104.784 25.034V25.4821V26.3195V26.7284L104.785 27.4941V27.8672L104.789 28.5612L104.79 28.9001L104.794 29.5257L104.795 29.8303L104.8 30.3892L104.803 30.6596L104.81 31.1532L104.813 31.3911L104.821 31.8212L104.825 32.0281L104.834 32.3963L104.839 32.5739L104.849 32.8818L104.854 33.0301L104.867 33.281L104.872 33.3999L104.886 33.5954L104.893 33.685L104.908 33.8267L104.93 33.9799L104.958 34.1086L105.048 34.3839L105.097 34.5224L105.219 34.8042L105.284 34.9427L105.434 35.2099L105.673 35.5683L106.231 36.2982L105.457 36.2754L105.405 36.2738L105.248 36.2672L105.163 36.2624L104.952 36.2493L104.839 36.2428L104.579 36.2249L104.443 36.2151L104.145 36.1939L103.839 36.1711L103.151 36.1157L102.799 36.0864M89.533 35.148L89.2414 35.1333L88.6533 35.1024L88.3633 35.0877L87.8257 35.0616L87.5682 35.0486L87.1398 35.0291L87.0436 35.0258L86.8807 35.0193L86.6917 35.0128L85.97 34.9949L86.3985 34.5468L86.4571 34.4849L86.5875 34.322L86.6543 34.234L86.7879 34.0385L87.1219 33.4471L87.1561 33.3722L87.2131 33.1881L87.2391 33.0838L87.2831 32.7873L87.2945 32.701L87.3125 32.4973L87.3222 32.3882L87.3369 32.1291L87.345 31.9906L87.3597 31.6664L87.3662 31.4954L87.3776 31.0979L87.3825 30.8893L87.3939 30.4071L87.3988 30.1546L87.407 29.5795L87.4102 29.2797L87.4184 28.6019L87.4216 28.2484L87.4281 27.4583L87.4314 27.0477L87.4379 26.1354L87.4395 25.6629L87.4461 24.617L87.4477 24.0777L87.4526 22.8917L87.4607 20.9432L87.5063 9.09087H86.7341H86.5484L86.2779 9.11531L86.1509 9.13649L85.9179 9.24727L85.8576 9.28312L85.7256 9.3825L85.6572 9.43626L85.5024 9.578L85.4194 9.65457L85.2255 9.84519L84.8801 10.1971L84.5705 10.5115L83.9955 11.2284L83.8635 11.4043L83.6452 11.7301L83.4073 12.1521L83.3536 12.2678L83.246 12.4812L83.1939 12.5822L83.0961 12.7516L83.0505 12.8282L82.9739 12.9341L82.8958 13.0009H82.886L82.8697 12.9537L82.8615 12.9227L82.8452 12.8184L82.8371 12.7582L82.8224 12.6034L82.8159 12.5187L82.8013 12.3183L82.7882 12.1081L82.7687 11.5803L82.7508 10.6793L82.7475 10.36L82.741 9.63176L82.7377 9.26031L82.7296 8.49622L82.7263 8.11825L82.7198 7.40793L82.7182 7.2385L82.7149 6.92569L82.71 6.507L82.6905 4.65624L83.8309 4.74911L83.9091 4.75563L84.1861 4.77517L84.3425 4.78658L84.7595 4.81427L84.9827 4.82894L85.522 4.86315L85.8038 4.88107L86.4425 4.9218L86.7732 4.94298L87.4933 4.98697L87.8615 5.00978L88.6435 5.05865L91.1215 5.20691L97.2716 5.57347V9.69367V10.2606L97.2619 11.2935L97.2586 11.5412L97.2505 11.9941L97.2456 12.214L97.2358 12.605L97.2309 12.7907L97.2179 13.1084L97.2114 13.2567L97.1967 13.4897L97.1902 13.5939L97.1739 13.7292L97.1495 13.8139H97.1413L97.1087 13.7813L97.0908 13.7617L97.0403 13.6917L96.9849 13.6135L96.8318 13.3626L96.7487 13.2241L96.5532 12.8771L96.2371 12.2824L96.128 12.0723L95.8803 11.6405L95.7549 11.4271L95.4942 11.0231L95.3655 10.8292L95.1244 10.4985L94.8181 10.1401L94.6829 10.0081L94.4597 9.81912L94.3522 9.7344L94.1404 9.62199L94.0312 9.57311L93.7771 9.5112L93.2867 9.45092L92.3841 9.37598V21.225V21.6307V22.4045V22.7841V23.5059V23.861V24.5355V24.8662V25.4918V25.7998L92.3857 26.3797V26.6648L92.3874 27.2025V27.7287L92.3922 28.6606L92.3955 29.107L92.4053 29.889L92.4102 30.2621L92.4232 30.9089L92.4313 31.2168L92.4525 31.7446L92.4623 31.9939L92.49 32.4159L92.5047 32.6146L92.5405 32.947L92.5601 33.1034L92.604 33.3592L92.6285 33.4797L92.6839 33.6752L92.7132 33.7665L92.78 33.918L92.85 34.0597L93.0309 34.2699L93.3698 34.5941L93.5017 34.7212L93.7086 34.959L93.7526 35.0128L93.8129 35.1008L93.8504 35.1887V35.2066L93.795 35.236L93.7591 35.249L93.6239 35.2686L93.5457 35.2767L93.3241 35.2865L93.202 35.2897H92.8859L92.7165 35.2881L92.2994 35.2767L92.0778 35.2702L91.5516 35.249L91.2746 35.2376L90.6327 35.2066L90.2971 35.1904M51.4917 35.1073V35.0959L51.5275 35.0063L51.5503 34.9525L51.6236 34.7945L51.6644 34.7097L51.7654 34.5028L51.9397 34.1607L52.3877 33.2972L52.4366 20.3387L52.4382 19.9152L52.4415 19.1038L52.4431 18.7047L52.4447 17.9438L52.4464 17.5708L52.448 16.8572L52.4496 16.5069L52.4512 15.8422L52.4529 15.5147V14.8924L52.4545 14.5877V14.0094V13.4424L52.4529 12.4291L52.4512 11.9419L52.4464 11.0801L52.4431 10.6663L52.4333 9.94131L52.4284 9.59429L52.4138 8.99312L52.4073 8.70639L52.3877 8.21437L52.3763 7.9814L52.3502 7.58714L52.3372 7.40141L52.3046 7.09024L52.2883 6.94361L52.2492 6.70412L52.228 6.59008L52.1808 6.40598L52.1303 6.23329L52.0065 6.00032L51.7735 5.71032L51.6806 5.61095L51.5568 5.4301L51.534 5.39101L51.508 5.32746L51.5112 5.27044L51.5161 5.26555L51.6513 5.24927L51.7377 5.24112L52.0211 5.22157L52.1808 5.21016L52.5995 5.18573L52.8227 5.1727L53.3571 5.14337L53.6373 5.1287L54.2694 5.09775L54.5969 5.08146L55.3137 5.04888L55.6803 5.03095L56.4607 4.99674L57.6891 4.94461L58.5281 4.91039L60.1198 4.8436L60.5043 4.8273L61.2276 4.79472L61.5812 4.78006L62.2263 4.75073L62.5375 4.7377L63.0882 4.71163L63.3488 4.70023L63.7838 4.67905L63.9842 4.66927L64.2856 4.65299L64.5658 4.63669L65.3397 4.57641V8.5451V9.09087L65.3332 10.0847L65.3316 10.3225L65.3267 10.7592L65.325 10.9693L65.3185 11.3473L65.3136 11.5265L65.3071 11.8328L65.3022 11.9745L65.2941 12.1993L65.2892 12.3004L65.2794 12.4307L65.2648 12.5122H65.255L65.2028 12.4551L65.1719 12.4193L65.0888 12.3004L64.7695 11.7937L64.6261 11.5477L64.2416 11.0606L64.038 10.8194L63.559 10.3649L63.3114 10.1433L62.7754 9.75395L61.9477 9.27986L61.7506 9.18863L61.4068 9.05503L61.2358 8.99638L60.8709 8.91492L60.6786 8.88071L60.2045 8.83509L60.0742 8.82532L59.7777 8.81065L59.2677 8.7911L57.5147 8.73571L57.5571 13.027L57.6011 17.3182L59.0168 17.315L59.183 17.3134L59.4649 17.3101L59.6001 17.3085L59.8314 17.2971L60.053 17.2824L60.4163 17.2123L60.5972 17.1684L60.9849 17.012L61.0892 16.9647L61.327 16.8507L61.7457 16.6389L63.0588 15.9676V19.1967V22.4257L62.0162 21.8832L61.7311 21.7349L61.1022 21.502L60.7812 21.3961L60.1133 21.2576L59.7793 21.2006L59.1195 21.1615L58.1876 21.225L57.5196 21.3391V26.2331V31.1272L58.6812 31.0131L59.0022 30.9805L59.6082 30.8844L59.9064 30.8307L60.4684 30.6873L60.7438 30.6107L61.2651 30.4201L61.5193 30.3191L62.0015 30.0796L62.2377 29.9542L62.6841 29.6642L62.9024 29.5127L63.3163 29.1722L63.5183 28.9946L63.9011 28.5987L64.4436 27.9454L65.2582 26.862L65.3022 30.7085L65.3087 31.2363L65.3136 32.2073L65.3153 32.4387V32.8655V33.0724L65.3136 33.4439L65.312 33.6215L65.3087 33.9245L65.3071 34.0662L65.3022 34.291L65.299 34.3921L65.2925 34.5273L65.281 34.6201L65.2762 34.6234L65.2354 34.6315L65.2077 34.6364L65.1181 34.6446L65.0676 34.6495L64.9275 34.6609L64.8526 34.6658L64.662 34.6788L64.5593 34.6837L64.3166 34.6983L64.1879 34.7049L63.8897 34.7195L63.7333 34.7277L63.3782 34.744L63.1924 34.7521L62.7803 34.77L62.5652 34.7798L62.0927 34.7993L61.8467 34.8091L61.3124 34.8303L61.037 34.8417L60.4375 34.8645L60.1296 34.8759L59.4649 34.902L59.1244 34.9134L58.3929 34.9411L58.0182 34.9558L57.2166 34.9834L56.8077 34.9997L55.9361 35.0307L54.5464 35.0796L54.126 35.0942L53.3603 35.1154L53.1779 35.1203L52.8423 35.1268L52.6793 35.1284L52.3893 35.1317L52.2509 35.1333H52.0146H51.9055L51.7328 35.1301L51.6546 35.1268L51.5536 35.1203L51.5128 35.117M71.8564 34.8108L71.612 34.77L71.1526 34.6576L70.9294 34.5957L70.5123 34.4409L70.3087 34.3578L69.9324 34.1591L69.7483 34.0548L69.411 33.8104L69.2481 33.6834L68.95 33.395L68.805 33.2451L68.5443 32.9128L68.4188 32.7401L68.1957 32.3588L67.9024 31.7365L67.5391 30.8404V19.5991V8.35774L67.9285 7.38023L68.0572 7.05765L68.414 6.45975L68.6062 6.17138L69.0689 5.65819L69.3116 5.41381L69.8574 5.0114L70.7404 4.56175L70.8871 4.50636L71.2406 4.41023L71.4263 4.36462L71.8418 4.28479L72.2719 4.20985L73.2461 4.12024L73.7398 4.0844L74.7401 4.08114L74.9845 4.08603L75.4553 4.1121L76.1167 4.18215L76.4475 4.2294L77.0503 4.34833L77.3435 4.41187L77.873 4.56664L78.1288 4.6481L78.5882 4.84197L78.8098 4.94461L79.2057 5.18084L79.3946 5.30303L79.7286 5.58488L79.8899 5.7315L80.1685 6.05897L80.3005 6.23003L80.5285 6.60963L80.8153 7.24013L80.8886 7.43399L80.9994 7.82011L81.0499 8.0205L81.1232 8.48807L81.1411 8.61515L81.1688 8.90026L81.1819 9.04851L81.2063 9.38576L81.2177 9.56334L81.2372 9.96574L81.2649 10.6565L81.3513 13.1166L80.4732 13.5011L80.3526 13.5548L80.0137 13.7129L79.8313 13.7976L79.4093 14.0029L78.0864 14.6659L77.8779 14.7718L77.4869 14.9673L77.2979 15.0618L76.9721 15.2166L76.8205 15.2866L76.5973 15.3828L76.5485 15.4023L76.4784 15.4284L76.4165 15.4447H76.4035L76.3807 15.3942L76.3693 15.3616L76.3481 15.2476L76.3383 15.1824L76.322 15.0081L76.3122 14.9136L76.2976 14.6806L76.291 14.5584L76.2797 14.2717L76.2748 14.1218L76.2666 13.7845L76.2634 13.6102L76.2585 13.2241L76.2552 12.5969V9.74743L75.7795 9.21632L75.6752 9.09902L75.5025 8.93447L75.4178 8.86279L75.2451 8.77481L75.1539 8.73734L74.9307 8.7015L74.4794 8.68358H74.31L74.0444 8.7015L73.9222 8.71453L73.7267 8.76829L73.6322 8.80251L73.4661 8.90678L73.2038 9.13486L72.7525 9.58615L72.7052 19.3987L72.702 20.0732L72.6971 21.3814L72.6955 22.0249L72.6938 23.2517V23.8513L72.6955 24.9672V25.5098L72.6987 26.4873L72.7003 26.7219L72.7036 27.1601L72.7052 27.3735L72.7085 27.7662L72.7101 27.9584L72.7134 28.3038L72.715 28.4716L72.7199 28.7649L72.7231 28.9066L72.728 29.1461L72.7297 29.2585L72.7362 29.441L72.7378 29.5241L72.7443 29.643L72.7541 29.7489L72.7769 29.8711L72.8828 30.0943L72.9447 30.2018L73.1207 30.3908L73.2135 30.482L73.44 30.6319L73.5573 30.7003L73.8163 30.8062L73.9499 30.8518L74.2269 30.9056L74.367 30.9252L74.6456 30.9219L74.7824 30.9121L75.0447 30.8453L75.4031 30.6694L75.5693 30.5537L75.8039 30.2963L75.8561 30.2246L75.9424 30.0535L75.9815 29.9623L76.0467 29.7407L76.076 29.6202L76.1232 29.3302L76.1461 29.1754L76.1803 28.7991L76.1966 28.5987L76.221 28.1213L76.2552 27.2709L76.3367 24.8434L77.2327 24.5469L77.3565 24.5062L77.6921 24.3775L77.8714 24.3074L78.2835 24.1364L79.5494 23.5629L79.7449 23.4684L80.1099 23.3055L80.2858 23.2289L80.5856 23.11L80.7241 23.0578L80.9244 22.9959L81.0792 22.9845L81.0857 22.991L81.1004 23.0823L81.1085 23.1409L81.1232 23.325L81.1297 23.4277L81.1428 23.6949L81.1493 23.8366L81.1607 24.1738L81.1672 24.3514L81.177 24.7489L81.1819 24.9558L81.19 25.4039L81.2063 26.8848V27.108L81.2079 27.5169L81.2095 27.714V28.0774V28.4276L81.2079 29.0044L81.2047 29.2748L81.1949 29.7147L81.1884 29.92L81.1688 30.2523L81.1574 30.4071L81.1248 30.6612L81.1069 30.7802L81.0613 30.9871L80.8609 31.5736L80.7322 31.8929L80.4357 32.4387L80.2809 32.6977L79.9192 33.1376L79.7286 33.3461L79.2806 33.7029L78.4888 34.1689L78.2917 34.265L77.8453 34.4328L77.6156 34.5142L77.117 34.6495L76.8613 34.7114L76.3187 34.8124L76.0418 34.8596L75.4667 34.9248L74.8851 34.9802L73.6697 34.9818L73.0604 34.9639L71.8564 34.8108Z" fill="white"/>
<path d="M147.582 8.06345V4.89187H149.189C149.318 4.89187 149.459 4.92912 149.611 5.00361C149.762 5.07523 149.891 5.18697 149.997 5.33881C150.106 5.4878 150.161 5.67689 150.161 5.90609C150.161 6.13816 150.105 6.33584 149.993 6.49915C149.881 6.65959 149.745 6.78136 149.585 6.86444C149.427 6.94753 149.278 6.98907 149.138 6.98907H147.977V6.47336H148.923C149.017 6.47336 149.119 6.42609 149.228 6.33155C149.34 6.237 149.396 6.09518 149.396 5.90609C149.396 5.71127 149.34 5.57948 149.228 5.51072C149.119 5.44196 149.023 5.40758 148.94 5.40758H148.278V8.06345H147.582ZM149.499 6.56791L150.29 8.06345H149.525L148.751 6.56791H149.499ZM148.785 9.95437C148.31 9.95437 147.864 9.86556 147.449 9.68792C147.033 9.51029 146.668 9.2639 146.353 8.94875C146.038 8.63359 145.791 8.2683 145.614 7.85287C145.436 7.43745 145.347 6.99193 145.347 6.51634C145.347 6.04075 145.436 5.59523 145.614 5.17981C145.791 4.76438 146.038 4.39909 146.353 4.08393C146.668 3.76878 147.033 3.52239 147.449 3.34476C147.864 3.16712 148.31 3.07831 148.785 3.07831C149.261 3.07831 149.706 3.16712 150.122 3.34476C150.537 3.52239 150.903 3.76878 151.218 4.08393C151.533 4.39909 151.779 4.76438 151.957 5.17981C152.135 5.59523 152.223 6.04075 152.223 6.51634C152.223 6.99193 152.135 7.43745 151.957 7.85287C151.779 8.2683 151.533 8.63359 151.218 8.94875C150.903 9.2639 150.537 9.51029 150.122 9.68792C149.706 9.86556 149.261 9.95437 148.785 9.95437ZM148.785 9.12924C149.267 9.12924 149.705 9.01178 150.1 8.77685C150.496 8.54191 150.811 8.22676 151.046 7.83139C151.281 7.43601 151.398 6.99766 151.398 6.51634C151.398 6.03502 151.281 5.59667 151.046 5.20129C150.811 4.80592 150.496 4.49077 150.1 4.25583C149.705 4.0209 149.267 3.90344 148.785 3.90344C148.304 3.90344 147.866 4.0209 147.47 4.25583C147.075 4.49077 146.76 4.80592 146.525 5.20129C146.29 5.59667 146.172 6.03502 146.172 6.51634C146.172 6.99766 146.29 7.43601 146.525 7.83139C146.76 8.22676 147.075 8.54191 147.47 8.77685C147.866 9.01178 148.304 9.12924 148.785 9.12924Z" fill="white"/>
</svg>
